<?xml version="1.0" encoding="UTF-8" standalone="no"?>
<!DOCTYPE svg PUBLIC "-//W3C//DTD SVG 20010904//EN"
              "http://www.w3.org/TR/2001/REC-SVG-20010904/DTD/svg10.dtd">

<svg xmlns="http://www.w3.org/2000/svg"
     width="43.3494mm" height="43.3494mm"
     viewBox="0 0 512 512">
  <path id="インポートされたパス #1"
        fill="#00acee" stroke="black" stroke-width="1"
        d="M 163.04,379.74
           C 164.57,380.63 166.43,380.57 167.96,379.67
             167.96,379.67 375.96,255.52 375.96,255.52
             377.43,254.65 378.33,253.06 378.33,251.33
             378.33,249.64 377.43,248.01 375.96,247.18
             375.96,247.18 167.96,122.99 167.96,122.99
             166.43,122.13 164.57,122.10 163.04,122.93
             161.54,123.82 160.61,125.45 160.61,127.21
             160.61,127.21 160.61,251.33 160.61,251.33
             160.61,251.33 160.61,375.45 160.61,375.45
             160.61,377.24 161.54,378.87 163.04,379.74 Z
           M 53.28,52.78
           C 53.28,52.78 131.25,52.78 131.25,52.78
             131.25,52.78 131.25,6.00 131.25,6.00
             131.25,6.00 6.50,6.00 6.50,6.00
             6.50,6.00 6.50,130.76 6.50,130.76
             6.50,130.76 53.28,130.76 53.28,130.76
             53.28,130.76 53.28,52.78 53.28,52.78 Z
           M 380.76,6.00
           C 380.76,6.00 380.76,52.78 380.76,52.78
             380.76,52.78 458.73,52.78 458.73,52.78
             458.73,52.78 458.73,130.76 458.73,130.76
             458.73,130.76 505.51,130.76 505.51,130.76
             505.51,130.76 505.51,6.00 505.51,6.00
             505.51,6.00 380.76,6.00 380.76,6.00 Z
           M 458.73,458.24
           C 458.73,458.24 380.76,458.24 380.76,458.24
             380.76,458.24 380.76,505.02 380.76,505.02
             380.76,505.02 505.51,505.02 505.51,505.02
             505.51,505.02 505.51,380.27 505.51,380.27
             505.51,380.27 458.73,380.27 458.73,380.27
             458.73,380.27 458.73,458.24 458.73,458.24 Z
           M 53.28,380.27
           C 53.28,380.27 6.50,380.27 6.50,380.27
             6.50,380.27 6.50,505.02 6.50,505.02
             6.50,505.02 131.25,505.02 131.25,505.02
             131.25,505.02 131.25,458.24 131.25,458.24
             131.25,458.24 53.28,458.24 53.28,458.24
             53.28,458.24 53.28,380.27 53.28,380.27 Z" />
</svg>
